Coordinates
version=1
nRows=8
nColumns=36
inDegrees=yes

Units are S.I. units (second, meters, Newtons, ...)
If the header above contains a line with 'inDegrees', this indicates whether rotational values are in degrees (yes) or radians (no).

endheader
time	pelvis_tilt	pelvis_list	pelvis_rotation	pelvis_tx	pelvis_ty	pelvis_tz	hip_flexion_r	hip_adduction_r	hip_rotation_r	knee_angle_r	knee_angle_r_beta	ankle_angle_r	subtalar_angle_r	mtp_angle_r	hip_flexion_l	hip_adduction_l	hip_rotation_l	knee_angle_l	knee_angle_l_beta	ankle_angle_l	subtalar_angle_l	mtp_angle_l	lumbar_extension	lumbar_bending	lumbar_rotation	arm_flex_r	arm_add_r	arm_rot_r	elbow_flex_r	pro_sup_r	arm_flex_l	arm_add_l	arm_rot_l	elbow_flex_l	pro_sup_l
      1.15000000	    -26.91730450	     -5.55270420	      6.24906100	      0.14177258	      1.16533626	      0.09021873	     45.40764273	     -0.41410621	     -2.80320489	     51.09858920	      0.89183862	     29.93910538	    -19.58760975	     -7.49999952	     45.70855257	     -2.64244653	     -1.40020473	     51.89215879	      0.90568903	     33.06494980	     -9.36163330	     -7.49999952	    -21.35253648	     -0.07815513	      1.64934999	     42.12910373	     -8.01712313	     10.90731205	     73.74423529	     87.86288926	     39.50591443	    -20.11177323	     10.00227873	     71.64593598	     86.58889743
      1.16666670	    -26.98229337	     -4.91308992	      5.50257092	      0.14579387	      1.16428508	      0.09069118	     44.39181192	      0.02226855	     -1.92045894	     50.66746299	      0.88431405	     30.45559930	    -19.09778017	     -7.49999954	     44.34271207	     -2.71211067	     -2.02163069	     51.50592028	      0.89894789	     33.06808729	     -9.01290935	     -7.49999954	    -18.08869701	     -0.83908580	      1.67009210	     48.35229451	     -7.06368936	     10.67648163	     82.94522750	     88.18494625	     45.48991471	    -26.16226717	     13.31710863	     83.20474002	     87.46291088
      1.18333330	    -27.36428959	     -4.50806865	      5.32559987	      0.16527694	      1.14994615	      0.08858736	     43.32705846	      0.13058811	     -1.42080966	     49.99507402	      0.87257865	     31.43860012	    -18.32981774	     -7.49999958	     43.33138799	     -2.72602771	     -2.64831795	     51.14339828	      0.89262069	     33.38279961	     -8.94320841	     -7.49999958	    -13.48212259	     -0.19748848	      0.16818212	     55.98080234	     -6.16843515	     11.82536299	     89.92342448	     91.38993375	     44.52040323	    -34.06826889	      8.78735564	     99.90572206	     90.77314618
      1.20000000	    -27.83068219	     -4.10474594	      5.27797650	      0.19564270	      1.16343662	      0.07531718	     40.91139879	     -0.39616790	     -1.22075499	     47.47827831	      0.82865228	     31.44185831	    -17.19297959	     -7.49999962	     41.59186475	     -2.28677472	     -3.26688552	     49.78254871	      0.86886938	     33.16993673	     -8.96394379	     -7.49999962	     -9.10744439	      0.01860966	     -0.57860967	     62.54036421	     -9.94720712	     12.35940490	     96.52804894	     93.14076742	     46.56779526	    -37.25821165	      7.66839964	    109.88540170	     93.63552510
      1.21666670	    -27.69460891	     -3.83355883	      4.99767707	      0.21571398	      1.17785346	      0.07240633	     37.35474675	     -0.74410432	     -1.06360489	     43.59276687	      0.76083731	     30.77305288	    -15.39969926	     -7.49999966	     38.35997054	     -1.96603119	     -3.82616842	     46.68901711	      0.81487707	     31.81493132	     -9.44370823	     -7.49999966	     -5.66746638	     -0.13254742	     -2.09823143	     65.84962699	    -11.59417661	     16.01421175	    100.12322476	     94.99686153	     45.59918665	    -41.99797797	      3.57660551	    117.73157417	     94.93371634
      1.23333330	    -27.73848926	     -3.64897254	      5.03466027	      0.23230655	      1.18634914	      0.07192349	     34.13977021	     -1.42630075	     -1.62067264	     39.68464965	      0.69262780	     28.97131356	    -13.26346609	     -7.49999967	     34.94262617	     -1.61014390	     -4.40716115	     42.56562582	      0.74291032	     29.67055203	     -8.79483352	     -7.49999967	     -2.41823043	     -0.31496243	     -2.83428875	     71.45927475	    -14.18665512	     21.63063090	    101.10522277	     95.45549901	     52.37023837	    -46.67971102	      5.59535201	    121.40651518	     94.97057330
      1.25000000	    -27.01591041	     -3.68495857	      5.05767483	      0.27898441	      1.20956165	      0.06250546	     29.10669483	     -1.91735600	     -2.55981097	     35.00450013	      0.61094378	     26.58691521	    -11.08278391	     -7.49999967	     29.94674857	     -1.32051623	     -4.66245691	     37.51443455	      0.65475040	     28.09967297	     -5.85216735	     -7.49999967	      0.66967351	      0.03866900	     -3.69132159	     72.68003426	    -16.61888345	     25.03532847	    105.92184905	     96.13957453	     53.64719730	    -51.91337276	      7.98467832	    124.51443177	     95.47978684
      1.26666670	    -25.80361261	     -3.89855128	      4.79047585	      0.30713617	      1.23305295	      0.06194546	     24.08160909	     -1.81300070	     -3.34794907	     30.42508314	      0.53101788	     23.64057022	     -8.65916928	     -7.49999970	     24.38336873	     -1.69963104	     -5.68146394	     32.46614481	      0.56664112	     24.61534107	     -3.65849348	     -7.49999970	      2.46626500	      0.14179225	     -4.61746193	     73.54641312	    -18.04096501	     26.78501070	    107.47453284	     94.80052549	     55.93463523	    -57.60852077	     11.17595265	    127.24488377	     93.77200026
